<svg width="40" height="40" viewBox="0 0 40 40" fill="none" xmlns="http://www.w3.org/2000/svg">
<path fill-rule="evenodd" clip-rule="evenodd" d="M15.0023 8.33175H25.0023V11.6651H15.0023V8.33175ZM28.3356 8.33175V9.99841C28.4512 11.2199 28.8429 11.5562 30.0023 11.6651H33.3356V14.9984H28.3356H11.6689H6.66895V11.6651H10.0023C11.2237 11.5495 11.5601 11.1578 11.6689 9.99841L11.6689 8.33175L15.0023 4.99841H25.0023L28.3356 8.33175ZM11.6689 31.6651V18.3317H8.33561L8.33561 31.6651L11.6689 34.9984H28.3356L31.6689 31.6651V18.3317H28.3356V31.6651H11.6689ZM15.0023 26.6651V18.3317H18.3356V26.6651H15.0023ZM21.6689 18.3317V26.6651H25.0023V18.3317H21.6689Z" fill="white"/>
</svg>
