<svg width="28" height="32" viewBox="0 0 28 32" fill="none" xmlns="http://www.w3.org/2000/svg">
<path fill-rule="evenodd" clip-rule="evenodd" d="M8.75244 3.74832H19.2524V7.24832H8.75244V3.74832ZM22.7524 3.74832V5.49832C22.8738 6.78086 23.2851 7.13405 24.5024 7.24832H28.0024V10.7483H22.7524H5.25244H0.00244141V7.24832H3.50244C4.78498 7.12698 5.13817 6.71571 5.25244 5.49832L5.25244 3.74832L8.75244 0.248322H19.2524L22.7524 3.74832ZM5.25244 28.2483V14.2483H1.75244L1.75244 28.2483L5.25244 31.7483H22.7524L26.2524 28.2483V14.2483H22.7524V28.2483H5.25244ZM8.75244 22.9983V14.2483H12.2524V22.9983H8.75244ZM15.7524 14.2483V22.9983H19.2524V14.2483H15.7524Z" fill="#FAFAFA"/>
</svg>
